<svg xmlns="http://www.w3.org/2000/svg" xmlns:xlink="http://www.w3.org/1999/xlink" version="1.1" style="" xml:space="preserve" width="174" height="174"><rect id="backgroundrect" width="100%" height="100%" x="0" y="0" fill="none" stroke="none" class="" style=""/>



<g class="currentLayer" style=""><title>Layer 1</title><g class="" id="svg_16">
	<path d="M148.72831776142124,25.47487554550171 C132.24457476139065,8.991132545471189 110.14137392044069,0 86.91428151130677,0 C38.96157460212709,0 2.384185791015625e-7,38.96157436370849 2.384185791015625e-7,86.91428127288819 s38.9615743637085,86.91428127288818 86.91428127288818,86.91428127288818 s86.91428127288818,-38.9615743637085 86.91428127288818,-86.91428127288818 C174.2031933069229,64.06181938648224 165.2120607614517,41.958618545532225 148.72831776142124,25.47487554550171 zM64.0618196249008,162.2150163412094 v-19.10615665912628 c0,-6.743349409103394 6.743349409103394,-10.11502411365509 16.10911247730255,-10.11502411365509 h13.11206829547882 c9.365763068199158,0 16.10911247730255,3.371674704551697 16.10911247730255,10.11502411365509 c0,0 0,14.610590386390685 0,19.10615665912628 c-7.11797993183136,2.247783136367799 -14.610590386390685,3.371674704551697 -22.47783136367798,3.371674704551697 C79.04704053401946,165.5866910457611 71.55443007946013,164.4627994775772 64.0618196249008,162.2150163412094 zM142.73422939777373,142.73422915935518 c-3.371674704551697,3.371674704551697 -6.743349409103394,6.3687188863754285 -10.489654636383056,8.99113254547119 v-7.8672409772872935 c0,0 0,-0.3746305227279663 0,-0.3746305227279663 c0,-20.979309272766113 -17.23300404548645,-28.097289204597473 -38.9615743637085,-28.097289204597473 h-13.11206829547882 c-21.35393979549408,0 -38.9615743637085,7.492610454559326 -38.9615743637085,28.097289204597473 l0,0 c0,0 0,0.3746305227279663 0,0.3746305227279663 v7.492610454559326 c-20.23004822731018,-14.23595986366272 -33.342116522789006,-37.46305227279663 -33.342116522789006,-64.06181938648224 c0,-43.45714063644409 35.21526913642884,-78.67240977287292 78.67240977287292,-78.67240977287292 s78.67240977287292,35.21526913642884 78.67240977287292,78.67240977287292 C165.58669128417972,107.89359054565429 157.34481978416443,128.12363877296448 142.73422939777373,142.73422915935518 z" id="svg_18"/>
	<path d="M86.91428151130677,37.08842175006866 c-22.47783136367798,0 -40.83472697734833,11.23891568183899 -40.83472697734833,34.84063861370087 c0,23.601722931861875 18.35689561367035,34.84063861370087 40.83472697734833,34.84063861370087 s40.83472697734833,-11.23891568183899 40.83472697734833,-34.84063861370087 C127.74900848865508,48.32733743190765 109.39211287498475,37.08842175006866 86.91428151130677,37.08842175006866 zM86.53965098857879,88.41280336380005 c-10.11502411365509,0 -18.35689561367035,-5.244827318191528 -18.35689561367035,-16.48374300003052 s8.24187150001526,-16.48374300003052 18.35689561367035,-16.48374300003052 s18.35689561367035,5.244827318191528 18.35689561367035,16.48374300003052 S96.65467510223388,88.41280336380005 86.53965098857879,88.41280336380005 z" id="svg_20"/>
</g></g></svg>
